<svg xmlns="http://www.w3.org/2000/svg" width="360" height="290" viewBox="0 0 360 290" role="img" aria-labelledby="title desc">
  <title id="title">Java backend developer</title>
  <desc id="desc">A developer with headphones writing Java code at a green terminal, with a blinking cursor.</desc>
  <defs>
    <linearGradient id="bg" x1="0" y1="0" x2="1" y2="1"><stop offset="0" stop-color="#050A07"/><stop offset="1" stop-color="#102A1D"/></linearGradient>
    <linearGradient id="hoodie" x1="0" y1="0" x2="1" y2="1"><stop offset="0" stop-color="#1A6B42"/><stop offset="1" stop-color="#0D3321"/></linearGradient>
  </defs>
  <rect x="1" y="1" width="358" height="288" rx="18" fill="url(#bg)" stroke="#1C5136"/>
  <path d="M1 40H359" stroke="#1C5136"/>
  <circle cx="20" cy="21" r="4" fill="#00FF88"/><circle cx="34" cy="21" r="4" fill="#36A667"/><circle cx="48" cy="21" r="4" fill="#215D3C"/>
  <text x="69" y="25" fill="#7FBA96" font-family="monospace" font-size="11">backend-dev.java</text>
  <text x="26" y="81" fill="#00FF88" opacity="0.18" font-family="monospace" font-size="29">{ }</text>
  <path d="M293 60h30v22M302 243h22M23 147v27" fill="none" stroke="#00FF88" stroke-opacity="0.18" stroke-width="2"/>
  <!-- Monitor and Java terminal -->
  <rect x="145" y="84" width="183" height="119" rx="8" fill="#07150C" stroke="#259858" stroke-width="2"/>
  <rect x="154" y="93" width="165" height="98" rx="3" fill="#030805"/>
  <path d="M154 112H319" stroke="#1C5136"/>
  <text x="163" y="106" fill="#7FBA96" font-family="monospace" font-size="8">JAVA / SPRING BOOT</text>
  <g font-family="monospace" font-size="8.5">
    <text x="163" y="129" fill="#00FF88">@SpringBootApplication</text>
    <text x="163" y="143" fill="#96CFAE">public class Application {</text>
    <text x="170" y="157" fill="#96CFAE">// build something useful</text>
    <text x="163" y="171" fill="#96CFAE">}</text>
    <text x="163" y="184" fill="#00FF88">$ ./mvnw spring-boot:run</text>
  </g>
  <rect x="293" y="177" width="5" height="9" fill="#00FF88"><animate attributeName="opacity" values="1;1;0;0" keyTimes="0;0.45;0.5;1" dur="1.2s" repeatCount="indefinite"/></rect>
  <path d="M224 204h26l4 18h-34z" fill="#153E29" stroke="#259858"/>
  <!-- Developer -->
  <path d="M51 151q9-16 34-18h20q27 4 34 29l6 61H44z" fill="url(#hoodie)" stroke="#278453" stroke-width="1.5"/>
  <path d="M79 135l16 22 15-22" fill="#102C1D" stroke="#45BD78"/>
  <path d="M86 127v14q10 11 20 0v-15" fill="#83AE91"/>
  <ellipse cx="96" cy="108" rx="26" ry="30" fill="#ADD2B7"/>
  <path d="M71 104q-7-30 20-34 33-4 32 35l-12-8-4-12q-13 10-34 8z" fill="#10271A"/>
  <path d="M67 108v-9q0-31 30-31 32 0 32 30v13" fill="none" stroke="#00FF88" stroke-width="4"/>
  <rect x="62" y="98" width="11" height="24" rx="5" fill="#0C3120" stroke="#00FF88" stroke-width="2"/>
  <rect x="121" y="98" width="11" height="24" rx="5" fill="#0C3120" stroke="#00FF88" stroke-width="2"/>
  <g fill="#103421" fill-opacity="0.8" stroke="#298653" stroke-width="1.5"><rect x="78" y="102" width="17" height="12" rx="4"/><rect x="101" y="102" width="17" height="12" rx="4"/><path d="M95 107h6"/></g>
  <path d="M90 122q7 5 14-1" fill="none" stroke="#3A704B" stroke-width="2" stroke-linecap="round"/>
  <path d="M86 159l-3 29M106 159l4 29" stroke="#77B58C" stroke-width="1.5"/>
  <path d="M58 174l17 37h78l-4-15-63-2-8-27" fill="#1B653E" stroke="#31935C" stroke-width="1.5"/>
  <path d="M126 169l18 28 42 5-3 14-49-5-17-23" fill="#1B653E" stroke="#31935C" stroke-width="1.5"/>
  <g fill="#ADD2B7" stroke="#7AAC89" stroke-width="1">
    <path d="M149 195l20 3 8 9-6 6-18-4z"/><path d="M184 201l18 3 7 10-5 6-22-5z"/>
    <animateTransform attributeName="transform" type="translate" values="0 0;0 1;0 0" dur="0.6s" repeatCount="indefinite"/>
  </g>
  <!-- Desk, keyboard and coffee -->
  <path d="M34 228H327" stroke="#3A9B60" stroke-width="4" stroke-linecap="round"/>
  <path d="M43 231v17M317 231v17" stroke="#255C3B" stroke-width="3"/>
  <path d="M165 220h93l9 7H158z" fill="#0B2115" stroke="#31935C"/>
  <path d="M174 223h75" stroke="#559D6D" stroke-dasharray="4 3"/>
  <ellipse cx="287" cy="223" rx="10" ry="4" fill="#15512F" stroke="#31935C"/>
  <rect x="43" y="204" width="22" height="22" rx="3" fill="#102E1D" stroke="#3ABC71"/>
  <path d="M65 209q12-1 9 8-2 4-9 3M49 197q-4-4 0-8M57 197q-4-4 0-8" fill="none" stroke="#3ABC71" stroke-width="1.5" stroke-linecap="round"/>
  <text x="25" y="269" fill="#80BB95" font-family="monospace" font-size="10" letter-spacing="1">BUILD · TEST · SHIP</text>
  <circle cx="315" cy="265" r="4" fill="#00FF88"><animate attributeName="opacity" values="0.35;1;0.35" dur="2s" repeatCount="indefinite"/></circle>
  <text x="324" y="269" fill="#80BB95" font-family="monospace" font-size="9">ON</text>
</svg>
